<svg width="256" height="256" viewBox="0 0 256 256" xmlns="http://www.w3.org/2000/svg" role="img" aria-labelledby="t d">
  <title id="t">Miltom-Bot icon</title>
  <desc id="d">Red Miltom teardrop mark with a transparent circular window holding a ragged list of red records.</desc>
  <path fill-rule="evenodd" fill="#D6293A" d="M24 24 L128 24 A104 104 0 0 1 232 128 A104 104 0 0 1 128 232 A104 104 0 0 1 24 128 L24 44 A20 20 0 0 1 44 24 Z M128 64 A64 64 0 1 0 128 192 A64 64 0 1 0 128 64 Z"/>
  <rect x="92" y="104" width="20" height="9" rx="4.5" fill="#D6293A"/>
  <rect x="120" y="104" width="48" height="9" rx="4.5" fill="#D6293A"/>
  <rect x="92" y="123.5" width="60" height="9" rx="4.5" fill="#D6293A"/>
  <rect x="92" y="143" width="32" height="9" rx="4.5" fill="#D6293A"/>
</svg>
