<svg xmlns="http://www.w3.org/2000/svg" viewBox="0 0 240 135">
  <defs>
    <linearGradient id="bg" x1="0" y1="0" x2="1" y2="1">
      <stop offset="0%" stop-color="#090f18"/>
      <stop offset="100%" stop-color="#0a1726"/>
    </linearGradient>
    <linearGradient id="flow" x1="0" y1="0" x2="1" y2="0">
      <stop offset="0%" stop-color="#20beff"/>
      <stop offset="100%" stop-color="#a78bfa"/>
    </linearGradient>
  </defs>

  <rect width="240" height="135" rx="12" fill="url(#bg)"/>
  <rect x="1" y="1" width="238" height="133" rx="11" fill="none" stroke="rgba(255,255,255,0.10)" />

  <circle cx="44" cy="44" r="17" fill="rgba(32,190,255,0.20)" stroke="rgba(32,190,255,0.85)" />
  <text x="44" y="48" text-anchor="middle" font-family="ui-sans-serif,sans-serif" font-size="9" font-weight="700" fill="#d8f5ff">IMU</text>

  <circle cx="44" cy="92" r="17" fill="rgba(167,139,250,0.20)" stroke="rgba(167,139,250,0.85)" />
  <text x="44" y="96" text-anchor="middle" font-family="ui-sans-serif,sans-serif" font-size="9" font-weight="700" fill="#efe8ff">GNSS</text>

  <rect x="92" y="34" width="66" height="66" rx="10" fill="rgba(255,255,255,0.06)" stroke="rgba(255,255,255,0.20)" />
  <text x="125" y="57" text-anchor="middle" font-family="ui-sans-serif,sans-serif" font-size="9" font-weight="700" fill="#ffffff">FUSION</text>
  <text x="125" y="73" text-anchor="middle" font-family="ui-sans-serif,sans-serif" font-size="8" fill="rgba(255,255,255,0.80)">ES-EKF</text>
  <text x="125" y="86" text-anchor="middle" font-family="ui-sans-serif,sans-serif" font-size="7" fill="rgba(255,255,255,0.66)">Q-ATTITUDE</text>

  <path d="M61 44 H92" stroke="url(#flow)" stroke-width="3" stroke-linecap="round"/>
  <path d="M61 92 H92" stroke="url(#flow)" stroke-width="3" stroke-linecap="round"/>
  <path d="M158 67 H215" stroke="url(#flow)" stroke-width="3" stroke-linecap="round"/>

  <polyline points="170,86 184,72 195,78 207,58 217,66" fill="none" stroke="rgba(32,190,255,0.88)" stroke-width="2" stroke-linecap="round" stroke-linejoin="round"/>
  <circle cx="217" cy="66" r="2.5" fill="#4ade80"/>

  <text x="170" y="29" font-family="ui-sans-serif,sans-serif" font-size="8" font-weight="700" fill="rgba(255,255,255,0.72)">3D NAV OUTPUT</text>
  <text x="170" y="103" font-family="ui-sans-serif,sans-serif" font-size="7" fill="rgba(255,255,255,0.58)">REAL-TIME</text>
</svg>
